# xmcd CD database file
#
# Track frame offsets:
#	150
#	22097
#	39482
#	57148
#	75731
#	96839
#	108903
#	135159
#	148677
#	167714
#	191485
#	202812
#	213168
#	233148
#	249247
#	262285
#
# Disc length: 3670 seconds
#
# Revision: 2
# Processed by: cddbd v1.5.1PL0 Copyright (c) Steve Scherf et al.
# Submitted via: CDex 1.51
#
DISCID=d50e5410
DTITLE=Jean Sangally - Monsieur SANGALLY
DYEAR=1900
DGENRE=Blues
TTITLE0=AC2L
TTITLE1=Black Woman
TTITLE2=Boubou Blues
TTITLE3=Besoin de nuit
TTITLE4=Les routes du doute
TTITLE5=A toi qui me demandes
TTITLE6=Chambe Blues
TTITLE7=Mauvais Sommeil
TTITLE8=Blues du Ringard
TTITLE9=Desesperado Blues
TTITLE10=Petit Homme
TTITLE11=Belle Princesse Blues
TTITLE12=J'ai bu dans ton regard
TTITLE13=Court Metrage Blues
TTITLE14=Je me remets a boire
TTITLE15=MOUALI (l'arbrisseau)
EXTD=
EXTT0=
EXTT1=
EXTT2=
EXTT3=
EXTT4=
EXTT5=
EXTT6=
EXTT7=
EXTT8=
EXTT9=
EXTT10=
EXTT11=
EXTT12=
EXTT13=
EXTT14=
EXTT15=
PLAYORDER=
